<svg xmlns="http://www.w3.org/2000/svg" viewBox="-60 -60 120 120"><circle r="60" fill="#080806"/><g transform="scale(.95)"><circle r="44" fill="none" stroke="#a08e7c" stroke-width="2"/><circle r="36" fill="none" stroke="#a08e7c" stroke-width="1" opacity=".6"/><path d="M0 0L0.0 -6.0L18.38 -18.38Z" fill="#a08e7c"/><path d="M0 0L18.38 -18.38L6.0 0.0Z" fill="none" stroke="#a08e7c" stroke-width="1.5" stroke-linejoin="round"/><path d="M0 0L6.0 0.0L18.38 18.38Z" fill="#a08e7c"/><path d="M0 0L18.38 18.38L0.0 6.0Z" fill="none" stroke="#a08e7c" stroke-width="1.5" stroke-linejoin="round"/><path d="M0 0L0.0 6.0L-18.38 18.38Z" fill="#a08e7c"/><path d="M0 0L-18.38 18.38L-6.0 0.0Z" fill="none" stroke="#a08e7c" stroke-width="1.5" stroke-linejoin="round"/><path d="M0 0L-6.0 0.0L-18.38 -18.38Z" fill="#a08e7c"/><path d="M0 0L-18.38 -18.38L-0.0 -6.0Z" fill="none" stroke="#a08e7c" stroke-width="1.5" stroke-linejoin="round"/><path d="M0 0L-5.66 -5.66L0.0 -48.0Z" fill="#a08e7c"/><path d="M0 0L0.0 -48.0L5.66 -5.66Z" fill="none" stroke="#a08e7c" stroke-width="1.5" stroke-linejoin="round"/><path d="M0 0L5.66 -5.66L48.0 0.0Z" fill="#a08e7c"/><path d="M0 0L48.0 0.0L5.66 5.66Z" fill="none" stroke="#a08e7c" stroke-width="1.5" stroke-linejoin="round"/><path d="M0 0L5.66 5.66L0.0 48.0Z" fill="#a08e7c"/><path d="M0 0L0.0 48.0L-5.66 5.66Z" fill="none" stroke="#a08e7c" stroke-width="1.5" stroke-linejoin="round"/><path d="M0 0L-5.66 5.66L-48.0 0.0Z" fill="#a08e7c"/><path d="M0 0L-48.0 0.0L-5.66 -5.66Z" fill="none" stroke="#a08e7c" stroke-width="1.5" stroke-linejoin="round"/><circle r="5" fill="#a08e7c"/></g></svg>